<svg width="24" height="24" viewBox="0 0 24 24" fill="none" xmlns="http://www.w3.org/2000/svg">
<path fill-rule="evenodd" clip-rule="evenodd" d="M12 22C17.5228 22 22 17.5228 22 12C22 6.47715 17.5228 2 12 2C6.47715 2 2 6.47715 2 12C2 17.5228 6.47715 22 12 22ZM8.07718 9.25586C7.75174 8.93043 7.75174 8.40279 8.07718 8.07735C8.40262 7.75192 8.93025 7.75192 9.25569 8.07735L12.0001 10.8217L14.7444 8.07738C15.0698 7.75194 15.5975 7.75194 15.9229 8.07738C16.2484 8.40281 16.2484 8.93045 15.9229 9.25589L13.1786 12.0002L15.9224 14.744C16.2478 15.0695 16.2478 15.5971 15.9224 15.9225C15.5969 16.248 15.0693 16.248 14.7438 15.9225L12.0001 13.1787L9.25625 15.9226C8.93081 16.248 8.40317 16.248 8.07774 15.9226C7.7523 15.5971 7.7523 15.0695 8.07774 14.744L10.8215 12.0002L8.07718 9.25586Z" fill="#000"/>
</svg>
